<mxfile host="app.diagrams.net" agent="Mozilla/5.0 (Windows NT 10.0; Win64; x64) AppleWebKit/537.36 (KHTML, like Gecko) Chrome/130.0.0.0 Safari/537.36" version="24.8.6">
  <diagram id="C5RBs43oDa-KdzZeNtuy" name="Page-1">
    <mxGraphModel dx="1050" dy="522" grid="1" gridSize="10" guides="1" tooltips="1" connect="1" arrows="1" fold="1" page="1" pageScale="1" pageWidth="827" pageHeight="1169" math="0" shadow="0">
      <root>
        <mxCell id="WIyWlLk6GJQsqaUBKTNV-0" />
        <mxCell id="WIyWlLk6GJQsqaUBKTNV-1" parent="WIyWlLk6GJQsqaUBKTNV-0" />
        <mxCell id="HWOqFA4KHdBNm7YlPA0D-2" value="" style="edgeStyle=orthogonalEdgeStyle;rounded=0;orthogonalLoop=1;jettySize=auto;html=1;" edge="1" parent="WIyWlLk6GJQsqaUBKTNV-1" source="HWOqFA4KHdBNm7YlPA0D-0" target="HWOqFA4KHdBNm7YlPA0D-1">
          <mxGeometry relative="1" as="geometry" />
        </mxCell>
        <mxCell id="HWOqFA4KHdBNm7YlPA0D-0" value="START" style="ellipse;whiteSpace=wrap;html=1;" vertex="1" parent="WIyWlLk6GJQsqaUBKTNV-1">
          <mxGeometry x="370" y="40" width="120" height="80" as="geometry" />
        </mxCell>
        <mxCell id="HWOqFA4KHdBNm7YlPA0D-4" value="" style="edgeStyle=orthogonalEdgeStyle;rounded=0;orthogonalLoop=1;jettySize=auto;html=1;" edge="1" parent="WIyWlLk6GJQsqaUBKTNV-1" source="HWOqFA4KHdBNm7YlPA0D-1" target="HWOqFA4KHdBNm7YlPA0D-3">
          <mxGeometry relative="1" as="geometry" />
        </mxCell>
        <mxCell id="HWOqFA4KHdBNm7YlPA0D-1" value="Nhập điểm" style="shape=parallelogram;perimeter=parallelogramPerimeter;whiteSpace=wrap;html=1;fixedSize=1;" vertex="1" parent="WIyWlLk6GJQsqaUBKTNV-1">
          <mxGeometry x="370" y="210" width="120" height="60" as="geometry" />
        </mxCell>
        <mxCell id="HWOqFA4KHdBNm7YlPA0D-6" value="" style="edgeStyle=orthogonalEdgeStyle;rounded=0;orthogonalLoop=1;jettySize=auto;html=1;" edge="1" parent="WIyWlLk6GJQsqaUBKTNV-1" source="HWOqFA4KHdBNm7YlPA0D-3" target="HWOqFA4KHdBNm7YlPA0D-5">
          <mxGeometry relative="1" as="geometry" />
        </mxCell>
        <mxCell id="HWOqFA4KHdBNm7YlPA0D-8" value="" style="edgeStyle=orthogonalEdgeStyle;rounded=0;orthogonalLoop=1;jettySize=auto;html=1;" edge="1" parent="WIyWlLk6GJQsqaUBKTNV-1" source="HWOqFA4KHdBNm7YlPA0D-3" target="HWOqFA4KHdBNm7YlPA0D-7">
          <mxGeometry relative="1" as="geometry" />
        </mxCell>
        <mxCell id="HWOqFA4KHdBNm7YlPA0D-10" value="" style="edgeStyle=orthogonalEdgeStyle;rounded=0;orthogonalLoop=1;jettySize=auto;html=1;" edge="1" parent="WIyWlLk6GJQsqaUBKTNV-1" source="HWOqFA4KHdBNm7YlPA0D-3" target="HWOqFA4KHdBNm7YlPA0D-9">
          <mxGeometry relative="1" as="geometry" />
        </mxCell>
        <mxCell id="HWOqFA4KHdBNm7YlPA0D-3" value="Điểm&amp;gt;5" style="rhombus;whiteSpace=wrap;html=1;" vertex="1" parent="WIyWlLk6GJQsqaUBKTNV-1">
          <mxGeometry x="390" y="340" width="80" height="80" as="geometry" />
        </mxCell>
        <mxCell id="HWOqFA4KHdBNm7YlPA0D-12" value="" style="edgeStyle=orthogonalEdgeStyle;rounded=0;orthogonalLoop=1;jettySize=auto;html=1;" edge="1" parent="WIyWlLk6GJQsqaUBKTNV-1" source="HWOqFA4KHdBNm7YlPA0D-5" target="HWOqFA4KHdBNm7YlPA0D-11">
          <mxGeometry relative="1" as="geometry" />
        </mxCell>
        <mxCell id="HWOqFA4KHdBNm7YlPA0D-5" value="True&lt;div&gt;Đạt&lt;/div&gt;" style="rhombus;whiteSpace=wrap;html=1;" vertex="1" parent="WIyWlLk6GJQsqaUBKTNV-1">
          <mxGeometry x="230" y="340" width="80" height="80" as="geometry" />
        </mxCell>
        <mxCell id="HWOqFA4KHdBNm7YlPA0D-14" value="" style="edgeStyle=orthogonalEdgeStyle;rounded=0;orthogonalLoop=1;jettySize=auto;html=1;" edge="1" parent="WIyWlLk6GJQsqaUBKTNV-1" source="HWOqFA4KHdBNm7YlPA0D-7" target="HWOqFA4KHdBNm7YlPA0D-13">
          <mxGeometry relative="1" as="geometry" />
        </mxCell>
        <mxCell id="HWOqFA4KHdBNm7YlPA0D-7" value="Flase&lt;div&gt;Trượt&lt;/div&gt;" style="rhombus;whiteSpace=wrap;html=1;" vertex="1" parent="WIyWlLk6GJQsqaUBKTNV-1">
          <mxGeometry x="550" y="340" width="80" height="80" as="geometry" />
        </mxCell>
        <mxCell id="HWOqFA4KHdBNm7YlPA0D-18" value="" style="edgeStyle=orthogonalEdgeStyle;rounded=0;orthogonalLoop=1;jettySize=auto;html=1;" edge="1" parent="WIyWlLk6GJQsqaUBKTNV-1" source="HWOqFA4KHdBNm7YlPA0D-9" target="HWOqFA4KHdBNm7YlPA0D-17">
          <mxGeometry relative="1" as="geometry" />
        </mxCell>
        <mxCell id="HWOqFA4KHdBNm7YlPA0D-9" value="Điểm" style="shape=parallelogram;perimeter=parallelogramPerimeter;whiteSpace=wrap;html=1;fixedSize=1;" vertex="1" parent="WIyWlLk6GJQsqaUBKTNV-1">
          <mxGeometry x="370" y="510" width="120" height="60" as="geometry" />
        </mxCell>
        <mxCell id="HWOqFA4KHdBNm7YlPA0D-15" value="" style="edgeStyle=orthogonalEdgeStyle;rounded=0;orthogonalLoop=1;jettySize=auto;html=1;" edge="1" parent="WIyWlLk6GJQsqaUBKTNV-1" source="HWOqFA4KHdBNm7YlPA0D-11" target="HWOqFA4KHdBNm7YlPA0D-9">
          <mxGeometry relative="1" as="geometry" />
        </mxCell>
        <mxCell id="HWOqFA4KHdBNm7YlPA0D-11" value="" style="shape=waypoint;sketch=0;size=6;pointerEvents=1;points=[];fillColor=default;resizable=0;rotatable=0;perimeter=centerPerimeter;snapToPoint=1;" vertex="1" parent="WIyWlLk6GJQsqaUBKTNV-1">
          <mxGeometry x="260" y="530" width="20" height="20" as="geometry" />
        </mxCell>
        <mxCell id="HWOqFA4KHdBNm7YlPA0D-16" value="" style="edgeStyle=orthogonalEdgeStyle;rounded=0;orthogonalLoop=1;jettySize=auto;html=1;" edge="1" parent="WIyWlLk6GJQsqaUBKTNV-1" source="HWOqFA4KHdBNm7YlPA0D-13" target="HWOqFA4KHdBNm7YlPA0D-9">
          <mxGeometry relative="1" as="geometry" />
        </mxCell>
        <mxCell id="HWOqFA4KHdBNm7YlPA0D-13" value="" style="shape=waypoint;sketch=0;size=6;pointerEvents=1;points=[];fillColor=default;resizable=0;rotatable=0;perimeter=centerPerimeter;snapToPoint=1;" vertex="1" parent="WIyWlLk6GJQsqaUBKTNV-1">
          <mxGeometry x="580" y="530" width="20" height="20" as="geometry" />
        </mxCell>
        <mxCell id="HWOqFA4KHdBNm7YlPA0D-17" value="" style="shape=waypoint;sketch=0;size=6;pointerEvents=1;points=[];fillColor=default;resizable=0;rotatable=0;perimeter=centerPerimeter;snapToPoint=1;" vertex="1" parent="WIyWlLk6GJQsqaUBKTNV-1">
          <mxGeometry x="420" y="670" width="20" height="20" as="geometry" />
        </mxCell>
        <mxCell id="HWOqFA4KHdBNm7YlPA0D-19" value="END" style="ellipse;whiteSpace=wrap;html=1;" vertex="1" parent="WIyWlLk6GJQsqaUBKTNV-1">
          <mxGeometry x="370" y="680" width="120" height="80" as="geometry" />
        </mxCell>
      </root>
    </mxGraphModel>
  </diagram>
</mxfile>
